<svg xmlns="http://www.w3.org/2000/svg" width="23.992" height="23.992" viewBox="0 0 23.992 23.992"><defs><style>.a{fill:#d1d1d1;fill-rule:evenodd;}</style></defs><g transform="translate(0 -0.008)"><path class="a" d="M12,.008C8.738.008,8.33.021,7.05.08A8.8,8.8,0,0,0,4.138.637,5.881,5.881,0,0,0,2.013,2.021,5.882,5.882,0,0,0,.63,4.146,8.8,8.8,0,0,0,.072,7.058C.014,8.337,0,8.746,0,12S.014,15.67.072,16.95A8.8,8.8,0,0,0,.63,19.862a5.881,5.881,0,0,0,1.384,2.125A5.882,5.882,0,0,0,4.138,23.37a8.8,8.8,0,0,0,2.912.558C8.33,23.986,8.738,24,12,24s3.667-.014,4.946-.072a8.8,8.8,0,0,0,2.912-.558,6.134,6.134,0,0,0,3.508-3.508,8.8,8.8,0,0,0,.558-2.912c.058-1.28.072-1.688.072-4.946s-.014-3.667-.072-4.946a8.8,8.8,0,0,0-.558-2.912,5.882,5.882,0,0,0-1.384-2.125A5.881,5.881,0,0,0,19.854.637,8.8,8.8,0,0,0,16.942.08C15.663.021,15.254.008,12,.008Zm0,2.161c3.2,0,3.583.012,4.848.07a6.638,6.638,0,0,1,2.228.413,3.718,3.718,0,0,1,1.379.9,3.718,3.718,0,0,1,.9,1.379,6.638,6.638,0,0,1,.413,2.227c.058,1.265.07,1.644.07,4.847s-.012,3.583-.07,4.847a6.638,6.638,0,0,1-.413,2.228,3.973,3.973,0,0,1-2.277,2.277,6.636,6.636,0,0,1-2.228.413c-1.265.058-1.644.07-4.847.07s-3.583-.012-4.847-.07a6.636,6.636,0,0,1-2.227-.413,3.714,3.714,0,0,1-1.379-.9,3.715,3.715,0,0,1-.9-1.379,6.636,6.636,0,0,1-.413-2.228c-.058-1.265-.07-1.644-.07-4.847s.012-3.583.07-4.847a6.636,6.636,0,0,1,.413-2.227,3.715,3.715,0,0,1,.9-1.379,3.716,3.716,0,0,1,1.379-.9,6.638,6.638,0,0,1,2.227-.413c1.265-.058,1.644-.07,4.847-.07Z"/><path class="a" d="M12,16a4,4,0,1,1,4-4A4,4,0,0,1,12,16ZM12,5.844A6.16,6.16,0,1,0,18.156,12,6.16,6.16,0,0,0,12,5.844ZM19.839,5.6a1.44,1.44,0,1,1-1.44-1.44,1.44,1.44,0,0,1,1.44,1.44"/></g></svg>