<svg xmlns="http://www.w3.org/2000/svg" width="24.001" height="24" viewBox="0 0 24.001 24"><defs><style>.a{fill:#d1d1d1;fill-rule:evenodd;}</style></defs><path class="a" d="M22.224,0A1.757,1.757,0,0,1,24,1.729V22.268A1.758,1.758,0,0,1,22.224,24H1.772A1.753,1.753,0,0,1,0,22.268V1.729A1.752,1.752,0,0,1,1.772,0ZM20.451,20.451V14.169c0-3.085-.665-5.457-4.267-5.457a3.741,3.741,0,0,0-3.368,1.85h-.049V9H9.351V20.451H12.91V14.786c0-1.495.283-2.941,2.135-2.941,1.824,0,1.85,1.708,1.85,3.037v5.57h3.556ZM5.338,7.432A2.064,2.064,0,1,0,3.275,5.368,2.065,2.065,0,0,0,5.338,7.432ZM3.557,20.451H7.119V9H3.557V20.451Z"/></svg>