<svg xmlns="http://www.w3.org/2000/svg" width="23.998" height="19.5" viewBox="0 0 23.998 19.5"><defs><style>.a{fill:#d1d1d1;}</style></defs><path class="a" d="M7.547,21.5A13.914,13.914,0,0,0,21.556,7.491c0-.213,0-.425-.014-.636A10.018,10.018,0,0,0,24,4.306a9.828,9.828,0,0,1-2.828.775,4.941,4.941,0,0,0,2.165-2.723,9.867,9.867,0,0,1-3.126,1.195,4.928,4.928,0,0,0-8.391,4.491A13.978,13.978,0,0,1,1.67,2.9,4.927,4.927,0,0,0,3.195,9.471,4.887,4.887,0,0,1,.96,8.855v.062a4.926,4.926,0,0,0,3.95,4.827,4.916,4.916,0,0,1-2.223.084,4.929,4.929,0,0,0,4.6,3.419,9.88,9.88,0,0,1-6.115,2.112A10.023,10.023,0,0,1,0,19.288,13.939,13.939,0,0,0,7.547,21.5" transform="translate(0 -2)"/></svg>