<svg xmlns="http://www.w3.org/2000/svg" width="23.88" height="16.72" viewBox="0 0 23.88 16.72"><defs><style>.a{fill:#d1d1d1;}</style></defs><path class="a" d="M23.389,6.616a29.93,29.93,0,0,1,.492,5.763,31.526,31.526,0,0,1-.492,5.744,2.992,2.992,0,0,1-2.1,2.1c-1.869.492-9.344.492-9.344.492s-7.455,0-9.344-.511a2.992,2.992,0,0,1-2.1-2.1A31.407,31.407,0,0,1,0,12.36,31.524,31.524,0,0,1,.492,6.616,3.053,3.053,0,0,1,2.6,4.492C4.465,4,11.94,4,11.94,4s7.475,0,9.344.511a2.992,2.992,0,0,1,2.1,2.1ZM9.56,15.94l6.216-3.58L9.56,8.78Z" transform="translate(0 -4)"/></svg>