<svg width="180" height="36" viewBox="0 0 180 36" fill="none" xmlns="http://www.w3.org/2000/svg">
<g clip-path="url(#clip0)">
<path d="M7.62908 35.2971L0 36.0002L4.74436 6.69488C4.91672 5.63805 5.8284 4.85791 6.90336 4.85791H19.0092L17.7709 12.2783H11.3574L7.62908 35.2971Z" fill="#FC2B1B"/>
<path d="M39.1341 2.02747C39.0434 0.884465 38.0909 0 36.9433 0H21.6126L18.7959 16.2742L13.0401 16.6688L11.9561 24.1799L18.3786 23.7853L19.0046 23.7445L17.3354 24.6834L15.6617 34.3581L21.7124 33.6732C22.6785 33.5643 23.4541 32.8295 23.6174 31.877L25.087 23.3726L29.5501 23.1004L30.167 15.4895L26.4023 15.748L27.8447 7.4159H32.0992L34.104 33.0019L41.5017 32.4259L39.1341 2.02747Z" fill="#FC2B1B"/>
<path d="M57.5492 6.69007V15.63H67.1922V17.8661H57.5492V29.1419H55.0818V4.4585H67.5596V6.69461H57.5492V6.69007Z" fill="black"/>
<path d="M69.4238 8.65857V4.4585H71.7597V8.66311H69.4238V8.65857ZM69.4238 29.1419V10.8947H71.7597V29.1419H69.4238Z" fill="black"/>
<path d="M78.8989 12.9993V29.1464H76.5631V12.9993H72.7258V10.8992H76.5631V4.4585H78.8989V10.8947H83.2668V12.9947H78.8989V12.9993Z" fill="black"/>
<path d="M100.049 29.1419L98.847 25.5723H90.2745L88.9728 29.1419H82.2009L92.1069 4.4585H97.0781L106.884 29.1419H100.049ZM94.6424 12.1284H94.6107H94.5426L92.0072 20.5694H97.1779L94.6424 12.1284Z" fill="black"/>
<path d="M121.53 29.1419V27.1416H121.462C120.296 29.1101 118.092 29.7451 115.924 29.7451C110.254 29.7451 106.648 25.3092 106.648 19.8391C106.648 14.4688 110.25 9.99661 115.824 9.99661C117.961 9.99661 119.761 10.6634 121.263 12.1964V4.4585H126.801V29.1419H121.53ZM116.895 15.1673C114.228 15.1673 112.191 17.1041 112.191 19.8028C112.191 22.5016 114.06 24.5744 116.827 24.5744C119.593 24.5744 121.562 22.5379 121.562 19.8028C121.566 17.1358 119.562 15.1673 116.895 15.1673Z" fill="black"/>
<path d="M147.488 21.5717H133.613C133.944 23.7716 135.781 25.0733 137.949 25.0733C139.451 25.0733 140.417 24.4746 141.319 23.3407H146.989C145.388 27.0418 142.118 29.7451 137.949 29.7451C132.547 29.7451 128.143 25.3409 128.143 19.9389C128.143 14.5686 132.411 9.99658 137.85 9.99658C143.519 9.99658 147.624 14.5323 147.624 20.1022C147.619 20.6011 147.588 21.0683 147.488 21.5717ZM137.877 14.6638C135.876 14.6638 134.108 15.8295 133.672 17.8343H142.077C141.646 15.8341 139.882 14.6638 137.877 14.6638Z" fill="black"/>
<path d="M160.129 29.7769C157.929 29.7769 156.06 29.1101 154.559 27.4772V35.315H149.021V10.627H154.223V12.6636H154.255H154.323C155.757 10.8629 157.825 9.99658 160.093 9.99658C165.83 9.99658 169.132 14.7001 169.132 20.0704C169.137 25.2411 165.531 29.7769 160.129 29.7769ZM158.959 15.1673C156.292 15.1673 154.323 17.2673 154.323 19.9026C154.323 22.5061 156.324 24.6061 158.959 24.6061C161.594 24.6061 163.594 22.5061 163.594 19.9026C163.599 17.2673 161.63 15.1673 158.959 15.1673Z" fill="black"/>
<path d="M176.743 14.8317V29.1419H171.205V14.8317H168.47V10.6271H171.205V4.4585H176.743V10.6316H179.41V14.8362H176.743V14.8317Z" fill="black"/>
</g>
<defs>
<clipPath id="clip0">
<rect width="179.41" height="36" fill="white"/>
</clipPath>
</defs>
</svg>
