<svg width="180" height="36" viewBox="0 0 180 36" fill="none" xmlns="http://www.w3.org/2000/svg">
<g clip-path="url(#clip0)">
<path d="M7.62908 35.297L0 36L4.74436 6.69475C4.91672 5.63793 5.8284 4.85779 6.90336 4.85779H19.0092L17.7709 12.2782H11.3574L7.62908 35.297Z" fill="#FC2B1B"/>
<path d="M39.1342 2.02747C39.0435 0.884465 38.091 0 36.9434 0H21.6127L18.796 16.2742L13.0402 16.6688L11.9562 24.1799L18.3788 23.7853L19.0047 23.7445L17.3355 24.6834L15.6619 34.3581L21.7125 33.6732C22.6786 33.5643 23.4542 32.8295 23.6175 31.877L25.0871 23.3726L29.5502 23.1004L30.1671 15.4895L26.4024 15.748L27.8448 7.4159H32.0993L34.1041 33.0019L41.5018 32.4259L39.1342 2.02747Z" fill="#FC2B1B"/>
<path d="M57.5492 6.69019V15.6301H67.1921V17.8662H57.5492V29.142H55.0817V4.45862H67.5595V6.69473H57.5492V6.69019Z" fill="white"/>
<path d="M69.4237 8.65869V4.45862H71.7596V8.66323H69.4237V8.65869ZM69.4237 29.142V10.8948H71.7596V29.142H69.4237Z" fill="white"/>
<path d="M78.8988 12.9994V29.1465H76.5629V12.9994H72.7257V10.8993H76.5629V4.45862H78.8988V10.8948H83.2667V12.9948H78.8988V12.9994Z" fill="white"/>
<path d="M100.049 29.142L98.8469 25.5724H90.2744L88.9726 29.142H82.2008L92.1068 4.45862H97.078L106.884 29.142H100.049ZM94.6423 12.1285H94.6105H94.5425L92.007 20.5695H97.1778L94.6423 12.1285Z" fill="white"/>
<path d="M121.53 29.142V27.1417H121.462C120.296 29.1103 118.092 29.7452 115.924 29.7452C110.254 29.7452 106.648 25.3093 106.648 19.8392C106.648 14.469 110.25 9.99673 115.824 9.99673C117.96 9.99673 119.761 10.6635 121.262 12.1966V4.45862H126.801V29.142H121.53ZM116.895 15.1674C114.228 15.1674 112.191 17.1042 112.191 19.803C112.191 22.5017 114.06 24.5745 116.826 24.5745C119.593 24.5745 121.562 22.538 121.562 19.803C121.566 17.136 119.562 15.1674 116.895 15.1674Z" fill="white"/>
<path d="M147.488 21.5719H133.613C133.944 23.7717 135.781 25.0734 137.949 25.0734C139.451 25.0734 140.417 24.4747 141.319 23.3408H146.989C145.388 27.0419 142.118 29.7452 137.949 29.7452C132.547 29.7452 128.143 25.341 128.143 19.939C128.143 14.5687 132.411 9.9967 137.85 9.9967C143.519 9.9967 147.624 14.5324 147.624 20.1023C147.619 20.6012 147.588 21.0684 147.488 21.5719ZM137.877 14.664C135.876 14.664 134.108 15.8296 133.672 17.8344H142.077C141.646 15.8342 139.882 14.664 137.877 14.664Z" fill="white"/>
<path d="M160.129 29.777C157.929 29.777 156.06 29.1102 154.559 27.4774V35.3151H149.021V10.6272H154.223V12.6637H154.255H154.323C155.757 10.863 157.825 9.9967 160.093 9.9967C165.83 9.9967 169.132 14.7002 169.132 20.0705C169.137 25.2413 165.531 29.777 160.129 29.777ZM158.959 15.1674C156.292 15.1674 154.323 17.2675 154.323 19.9027C154.323 22.5062 156.324 24.6063 158.959 24.6063C161.594 24.6063 163.594 22.5062 163.594 19.9027C163.599 17.2675 161.63 15.1674 158.959 15.1674Z" fill="white"/>
<path d="M176.743 14.8318V29.142H171.205V14.8318H168.47V10.6272H171.205V4.45862H176.743V10.6317H179.41V14.8363H176.743V14.8318Z" fill="white"/>
</g>
<defs>
<clipPath id="clip0">
<rect width="179.41" height="36" fill="white"/>
</clipPath>
</defs>
</svg>
