<svg xmlns="http://www.w3.org/2000/svg" width="60.757" height="42" viewBox="0 0 60.757 42"><defs><style>.a{fill:#00aeef;}</style></defs><g transform="translate(-1755.364 -1059.494)"><g transform="translate(1755.364 1059.494)"><path class="a" d="M1810.269,1101.494h-49.052a5.859,5.859,0,0,1-5.853-5.852v-30.295a5.859,5.859,0,0,1,5.853-5.853h49.052a5.859,5.859,0,0,1,5.852,5.853v30.295A5.859,5.859,0,0,1,1810.269,1101.494Zm-49.052-40.024a3.881,3.881,0,0,0-3.876,3.877v30.295a3.881,3.881,0,0,0,3.876,3.876h49.052a3.881,3.881,0,0,0,3.876-3.876v-30.295a3.881,3.881,0,0,0-3.876-3.877Z" transform="translate(-1755.364 -1059.494)"/></g><g transform="translate(1757.271 1060.813)"><path class="a" d="M1799.277,1096.453a.986.986,0,0,1-.654-.247l-27.816-24.555,1.308-1.482,27.162,23.978,27.164-23.977,1.307,1.482-27.817,24.554A.986.986,0,0,1,1799.277,1096.453Z" transform="translate(-1770.807 -1070.17)"/></g><g transform="translate(1756.66 1076.945)"><rect class="a" width="28.352" height="1.976" transform="translate(0 21.314) rotate(-48.742)"/></g><g transform="translate(1798.537 1081.389)"><rect class="a" width="1.976" height="22.444" transform="matrix(0.752, -0.66, 0.66, 0.752, 0, 1.303)"/></g></g></svg>