<svg xmlns="http://www.w3.org/2000/svg" width="53.953" height="53.953" viewBox="0 0 53.953 53.953"><defs><style>.a{fill:#00aeef;}</style></defs><g transform="translate(-1036.658 -2500.199)"><g transform="translate(1045.797 2509.393)"><path class="a" d="M1140.759,2612.335a28.061,28.061,0,0,1-27.984-27.735c0-.047,0-.093,0-.142a7.717,7.717,0,0,1,7.689-7.689h.11a7.769,7.769,0,0,1,1.591.166,7.568,7.568,0,0,1,1.085.313.961.961,0,0,1,.606.694l2.447,11.033a.96.96,0,0,1-.254.882,7.664,7.664,0,0,1-2.738,1.79,19.12,19.12,0,0,0,10.284,10.208,7.632,7.632,0,0,1,1.821-2.734.962.962,0,0,1,.869-.248l10.933,2.358a.96.96,0,0,1,.687.577,6.965,6.965,0,0,1,.344,1.1,7.687,7.687,0,0,1-7.489,9.43Zm-20.321-33.645a5.783,5.783,0,0,0-5.744,5.737v.077c0,.014,0,.043,0,.058a26.136,26.136,0,0,0,26.063,25.853,5.765,5.765,0,0,0,5.616-7.081q-.038-.172-.088-.338l-9.883-2.131a5.7,5.7,0,0,0-1.261,2.466.961.961,0,0,1-1.252.691,21.017,21.017,0,0,1-12.757-12.672.96.96,0,0,1,.7-1.26,5.727,5.727,0,0,0,2.475-1.234l-2.209-9.96c-.11-.03-.219-.056-.325-.078a5.855,5.855,0,0,0-1.189-.126A.968.968,0,0,1,1120.438,2578.69Zm.194-.005h0Zm0,0h0Z" transform="translate(-1112.772 -2576.769)"/></g><g transform="translate(1036.658 2500.199)"><path class="a" d="M1063.613,2554.152q-.659,0-1.32-.032a27.123,27.123,0,0,1-25.614-25.876,26.977,26.977,0,1,1,53.932-1.068h-1.921a25.056,25.056,0,1,0-6.851,17.215,1.729,1.729,0,0,0,.414-1.677,1.818,1.818,0,0,0-1.256-1.28l-1.38-.4.534-1.845,1.38.4a3.724,3.724,0,0,1,2.576,2.62,3.656,3.656,0,0,1-.872,3.5A26.985,26.985,0,0,1,1063.613,2554.152Z" transform="translate(-1036.658 -2500.199)"/></g></g></svg>