<svg xmlns="http://www.w3.org/2000/svg" width="128.848" height="34.516" viewBox="0 0 128.848 34.516"><defs><style>.a{fill:#fff;}</style></defs><g transform="translate(0.1 0)"><path class="a" d="M274.138,270.538c-.972-.2-3.185-.41-3.185-1.759,0-1.017,1.4-1.369,2.214-1.369a8.8,8.8,0,0,1,3.238.705.68.68,0,0,0,.271.057.693.693,0,0,0,.57-.3h0l.061-.119h0l1.64-3.156a1.144,1.144,0,0,0,.061-.123.7.7,0,0,0,.053-.266.689.689,0,0,0-.332-.594l-.238-.09a16.4,16.4,0,0,0-5.739-.943c-4.353,0-8.781,2.185-8.781,7.108,0,3.6,2.214,4.69,4.427,5.276s4.427.664,4.427,2.226c0,1.1-1.32,1.525-2.21,1.525a10.677,10.677,0,0,1-4.69-1.463h0l-.2-.115a.877.877,0,0,0-.344-.07.914.914,0,0,0-.82.475l-.045.09-1.664,3.214a.926.926,0,0,0-.107.439.914.914,0,0,0,.447.8l.094.053a15.257,15.257,0,0,0,7.178,1.816c4.62,0,9.4-2.193,9.4-7.465C279.922,272.747,277.438,271.186,274.138,270.538Z" transform="translate(-262.85 -255.982)"/><path class="a" d="M365.637,270.538c-.972-.2-3.185-.41-3.185-1.759,0-1.017,1.4-1.369,2.214-1.369a8.8,8.8,0,0,1,3.238.705.68.68,0,0,0,.271.057.693.693,0,0,0,.57-.3h0l.061-.119h0l1.64-3.156a1.138,1.138,0,0,0,.061-.123.7.7,0,0,0,.053-.266.689.689,0,0,0-.332-.594l-.238-.09a16.4,16.4,0,0,0-5.739-.943c-4.353,0-8.781,2.185-8.781,7.108,0,3.6,2.214,4.69,4.427,5.276s4.431.664,4.431,2.226c0,1.1-1.324,1.525-2.214,1.525a10.677,10.677,0,0,1-4.69-1.463h0l-.2-.115a.877.877,0,0,0-.344-.07.914.914,0,0,0-.8.475.934.934,0,0,0-.045.09l-1.664,3.214a.927.927,0,0,0-.107.439.914.914,0,0,0,.447.8l.094.053h0a15.257,15.257,0,0,0,7.178,1.816c4.62,0,9.4-2.193,9.4-7.465C371.417,272.747,368.917,271.186,365.637,270.538Z" transform="translate(-316.854 -255.982)"/><path class="a" d="M326.681,265.074a.927.927,0,0,1-.111.439l-13.487,25.374-.049.094a.918.918,0,0,1-.689.463H306.32a.926.926,0,0,1-.82-.922.914.914,0,0,1,.1-.41.1.1,0,0,0,0-.029l4.345-8.145h0a.96.96,0,0,0,.107-.435.918.918,0,0,0-.1-.41v-.033l-3.6-6.46h0l-.094-.172a.951.951,0,0,1-.066-.344,1.02,1.02,0,0,1,.07-.357h0l.062-.111,2.8-5.288.1-.184h0a.9.9,0,0,1,.758-.41.922.922,0,0,1,.82.48h0l2.382,4.6h0a.943.943,0,0,0,.057.111.906.906,0,0,0,.787.455.918.918,0,0,0,.758-.41h0c.045-.07,4.165-8.227,4.165-8.227h0l.061-.119a.906.906,0,0,1,.689-.443h6.178A.918.918,0,0,1,326.681,265.074Z" transform="translate(-288.076 -256.929)"/><path class="a" d="M546.575,265.015a.927.927,0,0,1-.111.439l-13.482,25.374c0,.033-.029.066-.045.094a.918.918,0,0,1-.689.463H526.21a.926.926,0,0,1-.82-.922.913.913,0,0,1,.1-.41v-.029l3.689-6.887c.455-.853,1.037-1.545.484-2.488-.283-.484-3.238-5.821-3.415-6.149l-.094-.172a.95.95,0,0,1-.066-.344.973.973,0,0,1,.074-.361l.061-.111,2.8-5.288.1-.189a.9.9,0,0,1,.758-.41.922.922,0,0,1,.82.48h0l2.382,4.6h0a.945.945,0,0,0,.057.111.91.91,0,0,0,1.541.057h0c.045-.07,4.165-8.227,4.169-8.231l.061-.119a.906.906,0,0,1,.689-.443h6.178A.918.918,0,0,1,546.575,265.015Z" transform="translate(-417.827 -256.87)"/><path class="a" d="M414.862,263.311l-.049-.025-.066-.025a9.752,9.752,0,0,0-3.78-.742,11.86,11.86,0,0,0-5.419,1.263,10.522,10.522,0,0,0-5.739,9.637,10.248,10.248,0,0,0,5.768,9.289,11.5,11.5,0,0,0,9.068.5.338.338,0,0,0,.09-.033.914.914,0,0,0,.553-.844.9.9,0,0,0-.111-.443l-1.713-3.222v-.025l-.045-.082a.918.918,0,0,0-.8-.459h-.1c-.139,0-.271.021-.41.021a5.034,5.034,0,0,1-3.415-1.23,4.919,4.919,0,0,1,3.279-8.588,4.262,4.262,0,0,1,.562.037h.131a.922.922,0,0,0,.8-.459l.037-.07v-.033l1.685-3.177.066-.123h0a.9.9,0,0,0,.074-.353A.934.934,0,0,0,414.862,263.311Z" transform="translate(-343.725 -255.948)"/><path class="a" d="M448.891,246.49h-5.218a.922.922,0,0,0-.922.922v25.415a.922.922,0,0,0,.922.926H448.9a.926.926,0,0,0,.922-.926V247.412a.922.922,0,0,0-.935-.922Z" transform="translate(-369.064 -246.49)"/><path class="a" d="M490.029,263.213H484.7c-1.1,0-1.049,1.943-2.185,1.775a2.4,2.4,0,0,1-1.029-.562,10.718,10.718,0,0,0-6.067-1.836,9.51,9.51,0,0,0-5.214,1.23,10.677,10.677,0,0,0-5.132,8.535c-.025.291-.033.586-.033.877,0,5.739,4.157,10.711,10.06,10.711a8.54,8.54,0,0,0,3.038-.541,6.052,6.052,0,0,0,1.357-.693c.353-.258.635-.557,1.123-.467.709.131.73,1.033,1.5,1.033h5.227a.922.922,0,0,0,.922-.922V270.916a5.992,5.992,0,0,1,0-1.271,3.666,3.666,0,0,1,.41-.869c.291-.57,1.677-3.218,2.009-4,.152-.365.348-.689.139-1.066A.931.931,0,0,0,490.029,263.213Zm-13.118,14.54a4.28,4.28,0,0,1-4.542-4.509,4.544,4.544,0,0,1,9.088,0A4.284,4.284,0,0,1,476.911,277.753Z" transform="translate(-382.216 -255.982)"/><path class="a" d="M562.934,320.128a3.644,3.644,0,1,1,3.644-3.644A3.644,3.644,0,0,1,562.934,320.128Zm0-6.448a2.808,2.808,0,1,0,2.808,2.8,2.808,2.808,0,0,0-2.808-2.8Z" transform="translate(-437.831 -285.642)"/><path class="a" d="M567.917,320.29a.2.2,0,0,0-.037-.045l-.754-1.066-.029-.041h0a.2.2,0,0,1-.025-.1.234.234,0,0,1,.057-.148l.045-.033a1.025,1.025,0,0,0,.508-.943,1,1,0,0,0-.443-.844,2.05,2.05,0,0,0-1.185-.271h-.775a.2.2,0,0,0-.2.2v3.386a.2.2,0,0,0,.2.2h.471a.2.2,0,0,0,.205-.2v-.82a.2.2,0,0,1,.2-.2.217.217,0,0,1,.143.057.235.235,0,0,1,.045.066l.668.976a.173.173,0,0,0,.045.066.209.209,0,0,0,.143.057h.533a.2.2,0,0,0,.2-.2A.2.2,0,0,0,567.917,320.29Zm-1.718-1.771h-.041a.2.2,0,0,1-.2-.2V317.7a.2.2,0,0,1,.2-.2h.041a.881.881,0,0,1,.471.115.435.435,0,0,1,.18.41C566.851,318.351,566.629,318.519,566.2,318.519Z" transform="translate(-441.247 -287.976)"/></g></svg>