<svg id="Layer_1" data-name="Layer 1" xmlns="http://www.w3.org/2000/svg" viewBox="0 0 314.22 84.19"><defs><style>.cls-1{fill:#00aeef;}</style></defs><path class="cls-1" d="M290.53,282c-2.37-.48-7.77-1-7.77-4.29,0-2.48,3.41-3.34,5.4-3.34a21.46,21.46,0,0,1,7.9,1.72,1.66,1.66,0,0,0,.66.14,1.69,1.69,0,0,0,1.39-.74h0l.15-.29h0l4-7.7a2.8,2.8,0,0,0,.15-.3,1.71,1.71,0,0,0,.13-.65,1.68,1.68,0,0,0-.81-1.45l-.58-.22a40,40,0,0,0-14-2.3c-10.62,0-21.42,5.33-21.42,17.34,0,8.77,5.4,11.44,10.8,12.87s10.8,1.62,10.8,5.43c0,2.68-3.22,3.72-5.39,3.72-3.47,0-8-1.63-11.44-3.57,0,0,0,0,0,0l-.48-.28a2.14,2.14,0,0,0-.84-.17,2.23,2.23,0,0,0-2,1.16l-.11.22-4.06,7.84a2.26,2.26,0,0,0-.26,1.07,2.23,2.23,0,0,0,1.09,1.94l.23.13a.05.05,0,0,1,0,0,37.22,37.22,0,0,0,17.51,4.43c11.27,0,22.92-5.35,22.92-18.21C304.64,287.39,298.58,283.58,290.53,282Z" transform="translate(-262.85 -246.49)"/><path class="cls-1" d="M382,282c-2.37-.48-7.77-1-7.77-4.29,0-2.48,3.41-3.34,5.4-3.34a21.46,21.46,0,0,1,7.9,1.72,1.66,1.66,0,0,0,.66.14,1.69,1.69,0,0,0,1.39-.74h0l.15-.29h0l4-7.7a2.8,2.8,0,0,0,.15-.3,1.71,1.71,0,0,0,.13-.65,1.68,1.68,0,0,0-.81-1.45l-.58-.22a40,40,0,0,0-14-2.3c-10.62,0-21.42,5.33-21.42,17.34,0,8.77,5.4,11.44,10.8,12.87s10.81,1.62,10.81,5.43c0,2.68-3.23,3.72-5.4,3.72-3.47,0-8-1.63-11.44-3.57,0,0,0,0,0,0l-.48-.28a2.14,2.14,0,0,0-.84-.17,2.23,2.23,0,0,0-1.95,1.16,2.26,2.26,0,0,0-.11.22l-4.06,7.84a2.26,2.26,0,0,0-.26,1.07,2.23,2.23,0,0,0,1.09,1.94l.23.13,0,0a37.22,37.22,0,0,0,17.51,4.43c11.27,0,22.93-5.35,22.93-18.21C396.1,287.39,390,283.58,382,282Z" transform="translate(-262.85 -246.49)"/><path class="cls-1" d="M357.17,266.36a2.26,2.26,0,0,1-.27,1.07L324,329.33l-.12.23a2.24,2.24,0,0,1-1.68,1.13H307.5a2.26,2.26,0,0,1-2-2.25,2.23,2.23,0,0,1,.24-1,.25.25,0,0,0,0-.07l10.6-19.87,0,0a2.34,2.34,0,0,0,.26-1.06,2.24,2.24,0,0,0-.25-1s0-.05,0-.08l-8.77-15.76h0l-.23-.42a2.32,2.32,0,0,1-.16-.84,2.49,2.49,0,0,1,.17-.87h0l.15-.27,6.84-12.9.24-.45h0a2.19,2.19,0,0,1,1.85-1,2.25,2.25,0,0,1,2,1.17s0,0,0,0l5.81,11.22v0a2.29,2.29,0,0,0,.14.27,2.21,2.21,0,0,0,1.92,1.11,2.24,2.24,0,0,0,1.85-1,0,0,0,0,1,0,0c.11-.17,10.16-20.07,10.16-20.07h0l.15-.29a2.21,2.21,0,0,1,1.68-1.08h15.07A2.24,2.24,0,0,1,357.17,266.36Z" transform="translate(-262.85 -246.49)"/><path class="cls-1" d="M577.07,266.36a2.26,2.26,0,0,1-.27,1.07l-32.89,61.9c0,.08-.07.16-.11.23a2.24,2.24,0,0,1-1.68,1.13H527.39a2.26,2.26,0,0,1-2-2.25,2.23,2.23,0,0,1,.24-1s0-.05,0-.07l9-16.8c1.11-2.08,2.53-3.77,1.18-6.07-.69-1.18-7.9-14.2-8.33-15l-.23-.42a2.32,2.32,0,0,1-.16-.84,2.38,2.38,0,0,1,.18-.88l.15-.27,6.84-12.9.25-.46a2.19,2.19,0,0,1,1.85-1,2.25,2.25,0,0,1,2,1.17l0,0,5.81,11.22v0a2.29,2.29,0,0,0,.14.27,2.22,2.22,0,0,0,3.76.14l0,0c.11-.17,10.16-20.07,10.17-20.08l.15-.29a2.21,2.21,0,0,1,1.68-1.08h15.07A2.24,2.24,0,0,1,577.07,266.36Z" transform="translate(-262.85 -246.49)"/><path class="cls-1" d="M436.53,264.45l-.12-.06-.16-.06a23.79,23.79,0,0,0-9.22-1.81,28.93,28.93,0,0,0-13.22,3.08c-8.4,4.29-14,12.76-14,23.51a25,25,0,0,0,14.07,22.66A28.06,28.06,0,0,0,436,313a.83.83,0,0,0,.22-.08,2.23,2.23,0,0,0,1.35-2.06,2.19,2.19,0,0,0-.27-1.08l-4.18-7.86,0-.06-.11-.2a2.24,2.24,0,0,0-1.94-1.12h-.24c-.34,0-.66.05-1,.05a12.28,12.28,0,0,1-8.33-3,12,12,0,0,1,8-20.95,10.39,10.39,0,0,1,1.37.09l.16,0h.16a2.25,2.25,0,0,0,1.94-1.12l.09-.17,0-.08,4.11-7.75.16-.3h0a2.2,2.2,0,0,0,.18-.86A2.28,2.28,0,0,0,436.53,264.45Z" transform="translate(-262.85 -246.49)"/><path class="cls-1" d="M457.73,246.49H445a2.25,2.25,0,0,0-2.25,2.25v62A2.25,2.25,0,0,0,445,313h12.76a2.26,2.26,0,0,0,2.25-2.26v-62A2.25,2.25,0,0,0,457.73,246.49Z" transform="translate(-262.85 -246.49)"/><path class="cls-1" d="M526,264.13h-13c-2.68,0-2.56,4.74-5.33,4.33a5.86,5.86,0,0,1-2.51-1.37c-4.3-3.22-9.55-4.23-14.8-4.48a23.2,23.2,0,0,0-12.72,3c-7.43,4.23-11.9,12.36-12.52,20.82-.06.71-.08,1.43-.08,2.14,0,14,10.14,26.13,24.54,26.13a20.83,20.83,0,0,0,7.41-1.32,14.77,14.77,0,0,0,3.31-1.69c.86-.63,1.55-1.36,2.74-1.14,1.73.32,1.78,2.52,3.66,2.52h12.75a2.25,2.25,0,0,0,2.25-2.25V282.92a14.59,14.59,0,0,1,0-3.1,8.94,8.94,0,0,1,1-2.12c.71-1.39,4.09-7.85,4.9-9.77.37-.89.85-1.68.34-2.6A2.27,2.27,0,0,0,526,264.13ZM494,299.6c-7,0-11.08-4.78-11.08-11,0-6,4.07-11.05,11.08-11.05s11.09,5.05,11.09,11.05C505.09,294.82,501,299.6,494,299.6Z" transform="translate(-262.85 -246.49)"/><path class="cls-1" d="M568.18,330.62a8.89,8.89,0,1,1,8.89-8.89A8.89,8.89,0,0,1,568.18,330.62Zm0-15.73a6.85,6.85,0,1,0,6.85,6.84A6.85,6.85,0,0,0,568.18,314.89Z" transform="translate(-262.85 -246.49)"/><path class="cls-1" d="M572,325.32a.48.48,0,0,0-.09-.11l-1.84-2.6-.07-.1h0a.48.48,0,0,1-.06-.24.57.57,0,0,1,.14-.36l.11-.08a2.5,2.5,0,0,0,1.24-2.3,2.43,2.43,0,0,0-1.08-2.06,5,5,0,0,0-2.89-.66h-1.89a.49.49,0,0,0-.49.5v8.26a.49.49,0,0,0,.49.5h1.15a.5.5,0,0,0,.5-.5v-2a.5.5,0,0,1,.5-.5.53.53,0,0,1,.35.14.57.57,0,0,1,.11.16l1.63,2.38a.42.42,0,0,0,.11.16.51.51,0,0,0,.35.14h1.3a.5.5,0,0,0,.5-.5A.48.48,0,0,0,572,325.32ZM567.81,321h-.1a.49.49,0,0,1-.5-.49V319a.5.5,0,0,1,.5-.5h.1a2.15,2.15,0,0,1,1.15.28,1.06,1.06,0,0,1,.44,1C569.4,320.59,568.86,321,567.81,321Z" transform="translate(-262.85 -246.49)"/></svg>